<svg width="26" height="24" viewBox="0 0 26 24" fill="none" xmlns="http://www.w3.org/2000/svg">
<path d="M13.875 12.4746C13.875 12.6406 13.9336 12.7822 14.0654 12.9092L17.874 16.6348C17.9814 16.7422 18.1133 16.7959 18.2695 16.7959C18.5869 16.7959 18.8408 16.5518 18.8408 16.2295C18.8408 16.0732 18.7725 15.9316 18.6699 15.8242L15.2324 12.4746L18.6699 9.125C18.7773 9.0127 18.8408 8.87109 18.8408 8.71484C18.8408 8.39746 18.5869 8.15332 18.2695 8.15332C18.1133 8.15332 17.9814 8.20703 17.874 8.31445L14.0654 12.04C13.9385 12.167 13.875 12.3086 13.875 12.4746Z" fill="#087990"/>
<path d="M7 12.3594C7 12.625 7.09375 12.8516 7.30469 13.0547L13.3984 19.0156C13.5703 19.1875 13.7812 19.2734 14.0312 19.2734C14.5391 19.2734 14.9453 18.8828 14.9453 18.3672C14.9453 18.1172 14.8359 17.8906 14.6719 17.7188L9.17188 12.3594L14.6719 7C14.8438 6.82031 14.9453 6.59375 14.9453 6.34375C14.9453 5.83594 14.5391 5.44531 14.0312 5.44531C13.7812 5.44531 13.5703 5.53125 13.3984 5.70312L7.30469 11.6641C7.10156 11.8672 7 12.0938 7 12.3594Z" fill="#087990"/>
</svg>
