<svg width="18" height="18" viewBox="0 0 18 18" fill="none" xmlns="http://www.w3.org/2000/svg">
<path d="M0 12.2783V16.1807C0 16.7344 0.369141 17.1299 0.931641 17.1299H4.85156C5.73926 17.1299 6.01172 16.1719 5.41406 15.5742L4.13086 14.291L8.56055 9.86133L12.9902 14.2998L11.7158 15.5742C11.1182 16.1719 11.3906 17.1299 12.2783 17.1299H16.1982C16.752 17.1299 17.1299 16.7344 17.1299 16.1807V12.2783C17.1299 11.3818 16.1631 11.127 15.5742 11.7158L14.291 12.999L9.86133 8.56055L14.291 4.13086L15.5742 5.40527C16.1631 6.00293 17.1299 5.73926 17.1299 4.84277V0.94043C17.1299 0.395508 16.752 0 16.1982 0H12.2783C11.3906 0 11.1182 0.949219 11.7158 1.55566L12.999 2.83008L8.56055 7.26855L4.13086 2.83008L5.41406 1.55566C6.01172 0.949219 5.73926 0 4.85156 0H0.931641C0.369141 0 0 0.395508 0 0.94043V4.84277C0 5.73926 0.958008 6.00293 1.55566 5.40527L2.83887 4.12207L7.26855 8.56055L2.83008 12.999L1.55566 11.7158C0.958008 11.127 0 11.3818 0 12.2783Z" fill="white"/>
</svg>
