<svg width="28" height="23" viewBox="0 0 28 23" fill="none" xmlns="http://www.w3.org/2000/svg">
<path d="M7.68 18.11C5.47 18.11 5.25 17.93 3.79 17.72C3.07 17.62 2.81 17.24 2.81 16.55V2.9C2.81 2.22 3.07 1.84 3.79 1.73C5.25 1.53 7.56 1.41 9.77 1.41C11.98 1.41 14.26 1.54 15.75 1.73C16.47 1.83 16.73 2.21 16.73 2.9V6.03H18.15V2.48C18.15 1.25 17.44 0.51 16.15 0.34C14.37 0.12 11.9 0 9.76 0C7.62 0 5.15 0.12 3.37 0.34C2.09 0.52 1.37 1.25 1.37 2.48V6.01H0.97C0.41 6.01 0 6.37 0 6.91V10C0 10.54 0.4 10.9 0.97 10.9H1.37V16.96C1.37 17.53 1.53 18.01 1.82 18.36V20.65C1.82 21.41 2.34 21.92 3.11 21.92H4.16C4.92 21.92 5.44 21.4 5.44 20.65V19.31C6.83 19.41 6.24 19.39 7.64 19.39L7.66 18.11H7.68ZM15.84 6.15V3.83C15.84 3.14 15.51 2.74 14.77 2.66C11.79 2.34 7.77 2.34 4.78 2.66C4.04 2.74 3.7 3.13 3.7 3.83V7.38H11.49C12.94 6.97 14.4 6.56 15.85 6.15H15.84ZM3.69 8.7V12.15C3.69 12.77 3.99 13.11 4.57 13.21C5.8 13.42 7.13 13.19 8.42 13.21L9.6 8.7H3.69ZM5.07 16.73C5.65 16.73 6.11 16.27 6.11 15.69C6.11 15.11 5.65 14.65 5.07 14.65C4.49 14.65 4.03 15.11 4.03 15.69C4.03 16.27 4.49 16.73 5.07 16.73ZM9.6 8.71L8.42 22.69H9.48C10.15 22.69 10.67 22.17 10.67 21.5V20.07C12.6 20.18 15.24 20.25 17.4 20.25C19.56 20.25 22.19 20.18 24.12 20.07V21.5C24.12 22.17 24.64 22.69 25.32 22.69H26.37C27.05 22.69 27.57 22.17 27.57 21.5V19.19C27.86 18.85 28.02 18.39 28.02 17.83V16.28C28.02 14.73 27.75 13.86 26.91 12.81L26.13 11.83C25.8 10.25 25.22 8.59 24.92 7.94C24.43 6.9 23.48 6.29 22.27 6.12C21.63 6.03 19.75 5.99 17.41 5.99C15.07 5.99 13.18 6.04 12.55 6.12C11.34 6.27 10.38 6.9 9.9 7.94C9.59 8.59 9.01 10.25 8.69 11.83L7.91 12.81C7.08 13.86 6.8 14.73 6.8 16.28V17.83C6.8 18.39 6.96 18.85 7.25 19.19V21.5C7.25 22.17 7.77 22.69 8.44 22.69L9.6 8.71ZM17.4 18.83C14.39 18.83 10.64 18.69 9.22 18.52C8.46 18.43 8.18 18.05 8.18 17.38V16.2C8.18 15.01 8.41 14.45 9.02 13.63L9.97 12.39C10.19 11.21 10.76 9.38 11.12 8.6C11.42 7.98 11.98 7.62 12.75 7.52C13.36 7.44 15.07 7.37 17.4 7.37C19.73 7.37 21.47 7.45 22.03 7.52C22.82 7.62 23.37 7.99 23.66 8.61C24.04 9.37 24.59 11.19 24.81 12.39L25.76 13.63C26.38 14.45 26.6 15.01 26.6 16.2V17.38C26.6 18.05 26.32 18.43 25.57 18.52C24.15 18.69 20.4 18.83 17.39 18.83H17.4ZM11.17 11.52C11.08 11.88 11.24 12.05 11.62 12.03C12.91 11.95 14.54 11.87 17.4 11.87C20.26 11.87 21.89 11.95 23.17 12.03C23.56 12.05 23.71 11.88 23.63 11.52C23.44 10.68 23.08 9.57 22.82 9.13C22.57 8.69 22.29 8.51 21.77 8.44C21.17 8.36 19.74 8.3 17.39 8.3C15.04 8.3 13.6 8.36 13.01 8.44C12.49 8.51 12.2 8.69 11.96 9.13C11.71 9.57 11.34 10.68 11.15 11.52H11.17ZM11.04 17.7C11.88 17.7 12.52 17.07 12.52 16.23C12.52 15.39 11.89 14.75 11.04 14.75C10.19 14.75 9.57 15.38 9.57 16.23C9.57 17.08 10.2 17.7 11.04 17.7ZM23.76 17.7C24.6 17.7 25.24 17.07 25.24 16.23C25.24 15.39 24.61 14.75 23.76 14.75C22.91 14.75 22.29 15.38 22.29 16.23C22.29 17.08 22.92 17.7 23.76 17.7ZM15.03 17.33H19.78C20.4 17.33 20.84 16.89 20.84 16.27C20.84 15.65 20.4 15.21 19.78 15.21H15.03C14.4 15.21 13.96 15.65 13.96 16.27C13.96 16.89 14.4 17.33 15.03 17.33Z" fill="#1C1C1E"/>
</svg>
